# xmcd
#
# Track frame offsets:
#	150
#	15294
#	33406
#	49763
#	65520
#	79982
#	92967
#	110076
#	129385
#	148555
#	164075
#	179540
#	196063
#	210469
#	225515
#	242025
#	257253
#	273972
#	288601
#	302562
#
# Disc length: 4258 seconds
#
# Revision: 0
# Processed by: cddbd v1.5.1PL2 Copyright (c) Steve Scherf et al.
# Submitted via: dBpowerAMP V4.0
#
DISCID=1810a014
DTITLE=Alabama - Ultimate Alabama
DYEAR=2005
DGENRE=Country
TTITLE0=Born Country
TTITLE1=Jukebox In My Mind
TTITLE2=Reckless
TTITLE3=Feels So Right
TTITLE4=Love In The First Degree
TTITLE5=Mountain Music
TTITLE6=Song Of Th e South
TTITLE7=Tennessee River
TTITLE8=Take Me Down 
TTITLE9=Lady Down On Love
TTITLE10=She And I
TTITLE11=Down Home
TTITLE12=Why Lady Why
TTITLE13=I'm In A Hurry
TTITLE14=Roll On
TTITLE15=You've Got The Touch
TTITLE16=There's No Way
TTITLE17=Fourty Hour Week
TTITLE18=If You're Gonna Play In Texas
TTITLE19=Southern Star
EXTD=I have purchased this album , I need to put it in wave form so I can play it in my car
EXTT0=
EXTT1=
EXTT2=
EXTT3=
EXTT4=
EXTT5=
EXTT6=
EXTT7=
EXTT8=
EXTT9=
EXTT10=
EXTT11=
EXTT12=
EXTT13=
EXTT14=
EXTT15=
EXTT16=
EXTT17=
EXTT18=
EXTT19=
PLAYORDER=
